<?xml version="1.0" standalone="no"?>
<!DOCTYPE svg PUBLIC "-//W3C//DTD SVG 1.1//EN" "http://www.w3.org/Graphics/SVG/1.1/DTD/svg11.dtd" >
<svg xmlns="http://www.w3.org/2000/svg">
<metadata>
This is a custom SVG font generated by IcoMoon.
0
</metadata>
<defs>
<font id="Tele_Iconfont" horiz-adv-x="512" >
<font-face units-per-em="512" ascent="480" descent="-32" />
<missing-glyph horiz-adv-x="512" />
<glyph unicode="&#x2b;" d="M 496.016,255.904 C 504.80,255.904 512.016,248.712 512.00,239.904 L 512.00,175.904 C 512.00,167.096 504.80,159.904 496.00,159.904 L 320.088,159.904 L 320.088-16.00 C 320.088-24.808 312.896-32.00 304.088-32.00 L 240.088-32.00 C 231.28-32.00 224.088-24.808 224.088-16.00 L 224.088,159.904 L 48.168,159.904 C 39.36,159.904 32.168,167.096 32.168,175.904 L 32.168,239.904 C 32.168,248.712 39.36,255.904 48.168,255.904 L 224.096,255.904 L 224.096,431.832 C 224.096,440.632 231.288,447.832 240.096,447.832 L 304.096,447.832 C 312.904,447.832 320.096,440.632 320.096,431.832 L 320.096,255.904 L 496.016,255.904 Z"  />
<glyph unicode="&#x50;" d="M 507.752,292.44 C 513.472,286.728 512.096,279.408 504.68,276.176 L 474.008,262.752 C 466.608,259.512 455.872,261.536 450.168,267.248 L 434.592,282.824 L 292.408,140.648 C 296.752,136.304 299.512,133.552 299.984,133.088 C 321.392,111.624 323.984,82.264 320.032,57.28 C 316.848,36.952 308.456,20.416 303.688,9.992 C 300.344,2.72 294.08,3.432 290.672,6.792 C 284.264,13.216 45.48,252.00 38.816,258.68 C 35.472,262.04 34.76,268.304 42.00,271.64 C 52.44,276.44 68.976,284.80 89.28,288.016 C 114.264,291.936 143.648,289.36 165.128,267.936 C 165.592,267.464 168.336,264.712 172.672,260.376 L 314.84,402.552 L 299.248,418.136 C 293.552,423.84 291.52,434.568 294.752,441.968 L 308.192,472.68 C 311.44,480.08 318.752,481.464 324.472,475.752 L 507.752,292.44 ZM 13.064,2.792 L 122.664,129.536 L 161.52,90.704 L 34.76-18.92 C 22.536-29.48 8.344-33.92 3.192-28.776 C -1.944-23.64 2.504-9.424 13.064,2.792 Z"  />
<glyph unicode="&#x61;" d="M 480.128,423.024 C 521.928,381.232 521.936,313.104 480.088,271.232 L 243.04,33.936 C 215.456,6.304 179.192-7.52 142.92-7.52 C 106.752-7.52 70.576,6.224 43.008,33.728 C 16.08,60.584 1.392,96.08 1.376,133.936 C 1.352,171.80 16.00,207.312 42.624,233.928 L 237.576,428.888 C 244.60,435.92 256.008,435.92 263.032,428.888 C 270.064,421.856 270.064,410.456 263.032,403.432 L 68.08,208.48 C 48.264,188.664 37.36,162.20 37.376,133.96 C 37.392,105.72 48.328,79.28 68.16,59.48 C 109.584,18.144 176.488,18.216 217.552,59.368 L 454.632,296.672 C 482.448,324.512 482.448,369.80 454.616,397.624 L 453.784,398.464 C 426.016,426.232 380.712,426.224 352.88,398.392 L 118.336,163.848 C 110.392,155.896 105.84,145.52 105.512,134.624 C 105.208,124.12 108.904,114.48 115.92,107.464 C 130.80,92.568 156.104,93.664 172.328,109.864 L 365.168,302.712 C 372.20,309.744 383.592,309.744 390.624,302.712 C 397.656,295.68 397.656,284.28 390.624,277.256 L 197.776,84.416 C 182.208,68.84 161.896,61.00 141.904,61.00 C 123.056,61.00 104.496,67.968 90.464,82.008 C 76.36,96.104 68.92,115.168 69.528,135.68 C 70.12,155.80 78.408,174.84 92.88,189.304 L 327.424,423.856 C 369.296,465.72 437.424,465.72 479.296,423.864 L 480.128,423.024 Z"  />
<glyph unicode="&#x62;" d="M 360.40,480.00 C 373.592,480.00 384.40,469.208 384.40,456.00 L 384.40-18.952 C 384.40-32.16 376.28-35.832 366.36-27.112 L 256.40,69.376 L 146.44-27.104 C 136.52-35.808 128.40-32.136 128.40-18.936 L 128.40,456.00 C 128.40,469.20 139.208,480.00 152.40,480.00 L 360.40,480.00 Z"  />
<glyph unicode="&#x41;" d="M 187.24,142.752 C 173.816,133.472 164.688,125.928 159.88,120.096 C 155.296,114.264 152.68,107.992 152.04,101.336 L 239.952,101.336 L 239.952,63.632 L 107.784,63.632 C 108.024,85.936 111.704,104.56 118.88,119.464 C 124.744,131.344 133.888,142.544 146.432,153.088 C 150.928,156.816 159.632,163.352 172.56,172.632 C 183.60,180.64 191.144,188.224 195.208,195.296 C 199.28,202.28 201.328,209.864 201.328,218.008 C 201.328,225.20 199.44,231.056 195.68,235.656 C 191.192,241.416 185.016,244.248 177.056,244.248 C 168.016,244.248 161.36,239.576 157.04,230.184 C 155.072,225.896 153.832,220.68 153.304,214.52 L 111.704,214.52 C 112.84,232.384 118.328,247.392 128.128,259.584 C 140.248,274.456 156.592,281.944 177.232,281.944 C 197.376,281.944 213.352,275.832 225.24,263.664 C 236.192,252.488 241.68,238.08 241.68,220.32 C 241.68,201.368 235.568,185.232 223.368,172.00 C 215.864,163.864 203.824,154.112 187.24,142.752 ZM 337.408,281.64c-20.64,0.00-37.328-8.672-50.048-25.984c-15.00-20.536-22.512-50.752-22.512-90.704c0.00-45.552, 10.92-76.616, 32.832-93.20
		c 11.048-8.448, 23.736-12.656, 37.984-12.656c 17.64,0.00, 32.656,6.296, 45.048,18.92c 14.104,14.28, 21.136,33.288, 21.136,57.048
		c0.00,21.616-5.736,39.144-17.20,52.576c-10.84,12.832-24.688,19.232-41.576,19.232c-14.496,0.00-26.592-6.112-36.28-18.272
		c 2.688,40.208, 12.656,60.344, 29.848,60.344c 10.00,0.00, 16.424-6.72, 19.208-20.176l 40.84,0.00 c-1.592,11.584-5.064,21.216-10.496,28.936
		C 375.36,273.664, 359.112,281.64, 337.408,281.64z M 315.512,161.216c 4.592,9.072, 10.744,13.592, 18.464,13.592c 7.832,0.00, 14.136-4.192, 18.896-12.504
		c 4.592-7.728, 6.856-17.248, 6.856-28.616c0.00-11.072-2.472-20.592-7.472-28.624c-4.592-7.408-10.424-11.096-17.512-11.096
		c-8.144,0.00-14.528,4.472-19.232,13.456c-4.08,7.904-6.112,16.784-6.112,26.584C 309.416,144.096, 311.456,153.184, 315.512,161.216zM 455.04,416.176l-70.736,0.00 L 384.304,448.00 c0.00,8.832-7.168,16.00-16.00,16.00s-16.00-7.168-16.00-16.00l0.00-31.824 L 160.536,416.176 L 160.536,448.00 c0.00,8.832-7.168,16.00-16.00,16.00s-16.00-7.168-16.00-16.00l0.00-31.824 L 57.776,416.176 
		c-14.064,0.00-25.568-11.504-25.568-25.568l0.00-397.048 C 32.208-20.496, 43.712-32.00, 57.776-32.00L 455.04-32.00 c 14.072,0.00, 25.56,11.504, 25.56,25.56L 480.60,390.608 
		C 480.60,404.672, 469.112,416.176, 455.04,416.176z M 448.60,0.00L 64.208,0.00 L 64.208,384.176 l 64.328,0.00 L 128.536,352.00 c0.00-8.832, 7.168-16.00, 16.00-16.00s 16.00,7.168, 16.00,16.00l0.00,32.176 l 191.768,0.00 L 352.304,352.00 
		c0.00-8.832, 7.168-16.00, 16.00-16.00s 16.00,7.168, 16.00,16.00l0.00,32.176 l 64.296,0.00 L 448.60,0.00 z"  />
<glyph unicode="&#x58;" d="M 472.544,75.472 C 478.776,69.248 478.776,59.064 472.552,52.848 L 427.52,7.816 C 421.296,1.60 411.12,1.60 404.896,7.816 L 256.312,156.392 L 107.584,7.664 C 101.36,1.448 91.184,1.448 84.96,7.664 L 39.488,53.128 C 33.264,59.352 33.264,69.528 39.488,75.752 L 188.216,224.48 L 39.768,372.928 C 33.544,379.144 33.544,389.336 39.768,395.552 L 84.80,440.584 C 91.024,446.80 101.20,446.80 107.424,440.584 L 255.88,292.136 L 404.448,440.704 C 410.672,446.928 420.848,446.92 427.072,440.704 L 472.528,395.248 C 478.752,389.032 478.752,378.84 472.528,372.624 L 323.96,224.048 L 472.544,75.472 Z"  />
<glyph unicode="&#x4f;" d="M 330.432,310.344 L 357.64,281.048 L 287.056,215.48 C 287.064,215.16 287.152,214.872 287.152,214.552 C 287.152,197.344 273.208,183.416 256.024,183.416 C 238.84,183.416 224.888,197.352 224.888,214.552 C 224.888,216.60 225.12,218.60 225.496,220.536 L 121.76,333.224 L 148.248,357.608 L 251.672,245.256 C 253.112,245.464 254.536,245.696 256.032,245.696 C 257.512,245.696 258.928,245.456 260.352,245.256 L 330.432,310.344 ZM 256.032,479.472c-141.112,0.00-255.496-114.392-255.496-255.496c0.00-141.096, 114.384-255.488, 255.496-255.488
		c 141.104,0.00, 255.48,114.392, 255.48,255.488C 511.504,365.08, 397.136,479.472, 256.032,479.472z M 256.032,4.496
		c-121.032,0.00-219.496,98.464-219.496,219.488c0.00,121.024, 98.464,219.496, 219.496,219.496c 121.024,0.00, 219.48-98.464, 219.48-219.496
		C 475.504,102.952, 377.056,4.496, 256.032,4.496z"  />
<glyph unicode="&#x59;" d="M 510.976,196.576 C 510.976,141.048 473.992,94.376 428.152,93.72 C 388.24,93.72 55.896,93.72 55.896,93.72 C 28.592,93.72 3.568,125.624 0.288,156.248 C -3.312,189.712 27.312,232.536 77.456,231.536 C 97.384,231.12 112.104,223.128 122.784,213.216 C 118.064,227.256 115.32,242.328 115.32,258.104 C 115.32,331.552 171.088,391.064 239.904,391.064 C 307.04,391.064 361.616,334.424 364.32,263.528 C 379.632,284.592 402.064,297.96 427.128,297.96 C 473.408,297.96 510.976,252.576 510.976,196.576 Z"  />
<glyph unicode="&#x49;" d="M 488.00,480.00L 24.40,480.00 c-13.20,0.00-24.00-10.80-24.00-24.00l0.00-304.456 c0.00-13.20, 10.80-24.00, 24.00-24.00l 71.272,0.00 l0.00-151.048 c0.00-8.808, 4.848-10.68, 10.784-4.176l 141.512,155.144
	c 0.024,0.032, 0.04,0.056, 0.064,0.088L 488.00,127.552 c 13.20,0.00, 24.00,10.80, 24.00,24.00L 512.00,456.00 C 512.00,469.20, 501.20,480.00, 488.00,480.00z M 96.248,383.464l 319.512,0.00 l0.00-32.00 L 96.248,351.464 L 96.248,383.464 z
	 M 255.968,224.496L 96.04,224.496 l0.00,32.00 l 159.928,0.00 L 255.968,224.496 z M 416.048,288.464L 96.248,288.464 l0.00,32.00 l 319.80,0.00 L 416.048,288.464 z"  />
<glyph unicode="&#x51;" d="M 504.432,128.048l-24.00,0.00 L 480.432,392.00 c0.00,13.20-10.80,24.00-24.00,24.00L 56.032,416.00 c-13.20,0.00-24.00-10.80-24.00-24.00l0.00-263.952 l-23.60,0.00 c-4.40,0.00-8.00-3.60-8.00-8.00L 0.432,40.00 c0.00-4.40, 3.60-8.00, 8.00-8.00l 496.00,0.00 
	c 4.40,0.00, 8.00,3.60, 8.00,8.00L 512.432,120.048 C 512.432,124.448, 508.832,128.048, 504.432,128.048z M 448.432,69.408l-48.00,0.00 l0.00,48.00 l 48.00,0.00 L 448.432,69.408 z M 448.432,160.00L 64.032,160.00 L 64.032,384.00 l 384.40,0.00 
	L 448.432,160.00 z"  />
<glyph unicode="&#x56;" d="M 505.832,377.256 C 512.44,371.432 513.08,361.272 507.272,354.68 L 204.512,10.824 C 198.688,4.216 188.528,3.568 181.936,9.384 L 6.144,164.928 C -0.448,170.752 -1.072,180.936 4.736,187.52 L 46.912,235.40 C 52.736,241.992 62.888,242.632 69.472,236.80 L 185.472,134.16 L 435.392,418.00 C 441.20,424.60 451.36,425.248 457.976,419.432 L 505.832,377.256 Z"  />
<glyph unicode="&#x63;" d="M 160.00,348.00 C 160.00,350.20 161.80,352.00 164.00,352.00 L 507.912,352.00 C 510.112,352.00 511.912,350.20 511.912,348.00 L 511.912,292.00 C 511.912,289.80 510.112,288.00 507.912,288.00 L 164.00,288.00 C 161.80,288.00 160.00,289.80 160.00,292.00 L 160.00,348.00 ZM 507.992,224.00 C 510.192,224.00 511.992,222.20 511.992,220.00 L 511.992,164.00 C 511.992,161.80 510.192,160.00 507.992,160.00 L 164.00,160.00 C 161.80,160.00 160.00,161.80 160.00,164.00 L 160.00,220.00 C 160.00,222.20 161.80,224.00 164.00,224.00 L 507.992,224.00 ZM 507.912,96.00 C 510.12,96.00 511.912,94.20 511.912,92.00 L 511.912,36.00 C 511.912,33.80 510.112,32.00 507.912,32.00 L 164.00,32.00 C 161.80,32.00 160.00,33.80 160.00,36.00 L 160.00,92.00 C 160.00,94.20 161.80,96.00 164.00,96.00 L 507.912,96.00 ZM 188.064,448.00 C 192.464,448.00 193.696,445.288 190.784,441.984 L 101.424,339.888 C 98.52,336.576 93.784,336.576 90.88,339.888 L 1.568,441.976 C -1.336,445.288 -0.104,448.00 4.296,448.00 L 188.064,448.00 Z"  />
<glyph unicode="&#x43;" d="M 352.08,360.40 L 352.08-7.56 C 352.08-20.76 341.28-31.56 328.08-31.56 L 88.04-31.56 C 74.84-31.56 64.04-20.76 64.04-7.56 L 64.04,360.40 C 64.04,373.176 74.184,383.608 86.808,384.272 L 329.312,384.272 C 341.928,383.616 352.08,373.176 352.08,360.40 ZM 424.136,480.40 C 437.336,480.40 448.136,469.60 448.136,456.40 L 448.136,88.44 C 448.136,75.24 437.336,64.44 424.136,64.44 L 384.136,64.44 L 384.136,396.272 C 384.136,407.296 375.168,416.272 364.136,416.272 L 160.096,416.272 L 160.096,456.40 C 160.096,469.60 170.896,480.40 184.096,480.40 L 424.136,480.40 Z"  />
<glyph unicode="&#xdf;" d="M 392.16,416.00 C 405.36,416.00 416.16,405.192 416.16,392.00 L 416.16,56.00 C 416.16,42.816 405.36,32.00 392.16,32.00 L 120.16,32.00 C 106.96,32.00 96.16,42.816 96.16,56.00 L 96.16,392.00 C 96.16,405.192 106.96,416.00 120.16,416.00 L 392.16,416.00 ZM 60.208,352.00 C 62.40,352.00 64.208,350.20 64.208,348.00 L 64.208,100.00 C 64.208,97.80 62.408,96.00 60.208,96.00 L 4.208,96.00 C 2.008,96.00 0.208,97.80 0.208,100.00 L 0.208,348.00 C 0.208,350.20 2.008,352.00 4.208,352.00 L 60.208,352.00 ZM 508.016,351.856 C 510.216,351.856 512.016,350.056 512.016,347.856 L 512.016,99.856 C 512.016,97.656 510.216,95.856 508.016,95.856 L 452.016,95.856 C 449.824,95.856 448.016,97.656 448.016,99.856 L 448.016,347.856 C 448.016,350.056 449.824,351.856 452.016,351.856 L 508.016,351.856 Z"  />
<glyph unicode="&#x2d;" d="M 31.984,240.632c0.00,8.80, 7.192,16.00, 16.00,16.00L 496.00,256.632 c 8.808,0.00, 16.00-7.20, 16.00-16.00l0.00-64.00 c0.00-8.80-7.192-16.00-16.00-16.00L 47.984,160.632 c-8.808,0.00-16.00,7.20-16.00,16.00L 31.984,240.632 z"  />
<glyph unicode="&#x54;" d="M 340.872,224.56L 425.40,224.56L 425.40,140.016L 340.872,140.016zM 85.784,224.56L 170.296,224.56L 170.296,140.016L 85.784,140.016z"  />
<glyph unicode="&#x64;" d="M 431.944,64.40 C 440.784,64.40 447.944,57.232 447.944,48.40 L 447.944,8.296 C 447.944-13.76 430.00-31.704 407.944-31.704 L 103.848-31.704 C 81.792-31.704 63.848-13.76 63.848,8.296 L 63.848,48.48 C 63.848,57.312 71.016,64.48 79.848,64.48 C 88.68,64.48 95.848,57.312 95.848,48.48 L 95.848,8.296 C 95.848,3.96 99.512,0.296 103.848,0.296 L 407.944,0.296 C 412.28,0.296 415.944,3.96 415.944,8.296 L 415.944,48.40 C 415.944,57.232 423.112,64.40 431.944,64.40 ZM 246.944,46.592 L 98.76,275.032 C 93.976,282.416 97.256,288.456 106.056,288.456 L 192.024,288.456 L 192.024,456.384 C 192.024,469.576 202.824,480.384 216.024,480.384 L 296.024,480.384 C 309.224,480.384 320.024,469.576 320.024,456.384 L 320.024,288.456 L 405.24,288.456 C 414.04,288.456 417.32,282.416 412.536,275.032 L 264.352,46.592 C 259.568,39.208 251.728,39.208 246.944,46.592 Z"  />
<glyph unicode="&#x65;" d="M 49.544,89.184 L 121.88,16.84 L 15.04-29.376 C 2.928-34.616 -2.624-29.024 2.704-16.944 L 49.544,89.184 ZM 504.432,433.584 C 513.76,424.256 513.76,408.976 504.424,399.648 L 155.688,50.912 L 83.216,123.384 L 431.936,472.128 C 441.264,481.456 456.544,481.456 465.872,472.128 L 504.432,433.584 Z"  />
<glyph unicode="&#x6a;" d="M 511.96,212.688 C 511.968,206.144 512.032,187.04 512.024,180.472 C 512.048,169.424 504.136,160.344 496.16,160.344 C 485.12,160.312 432.944,160.352 404.048,160.296 C 377.208,160.232 366.24,178.272 351.96,196.376 C 339.592,212.072 323.928,232.688 283.92,232.624 L 228.712,232.624 C 188.704,232.688 173.04,212.072 160.664,196.376 C 146.392,178.272 135.416,160.232 108.584,160.296 C 79.68,160.352 27.52,160.312 16.472,160.344 C 8.488,160.344 0.584,169.424 0.608,180.472 C 0.608,187.04 0.664,206.144 0.68,212.688 C 0.696,223.744 10.808,231.704 20.704,236.64 C 28.696,240.632 132.808,288.432 204.832,288.296 L 307.808,288.296 C 379.832,288.432 483.944,240.632 491.936,236.64 C 501.832,231.704 511.944,223.744 511.96,212.688 Z"  />
<glyph unicode="&#x78;" d="M 255.56,447.664c-123.712,0.00-224.00-100.288-224.00-224.00s 100.288-224.00, 224.00-224.00s 224.00,100.288, 224.00,224.00S 379.272,447.664, 255.56,447.664z M 372.344,129.424
	l-22.616-22.616c-3.112-3.112-8.20-3.112-11.312,0.00L 255.344,189.872L 172.616,107.152c-3.112-3.112-8.20-3.112-11.312,0.00l-22.624,22.616
	c-3.112,3.112-3.112,8.20,0.00,11.312l 82.736,82.736L 138.968,306.256c-3.112,3.112-3.112,8.20,0.00,11.312l 22.616,22.616
	c 3.112,3.112, 8.20,3.112, 11.312,0.00l 82.448-82.448l 82.784,82.784c 3.112,3.112, 8.20,3.112, 11.312,0.00l 22.616-22.624
	c 3.112-3.112, 3.112-8.20,0.00-11.312L 289.272,223.808l 83.072-83.072C 375.456,137.624, 375.456,132.528, 372.344,129.424z"  />
<glyph unicode="&#x26;" d="M 412.24,205.248 C 417.024,197.864 413.744,191.832 404.944,191.832 L 318.976,191.832 L 318.976,23.896 C 318.976,10.696 308.176-0.104 294.976-0.104 L 214.976-0.104 C 201.776-0.104 190.976,10.696 190.976,23.896 L 190.976,191.824 L 105.76,191.824 C 96.96,191.824 93.68,197.864 98.464,205.248 L 246.648,433.688 C 251.432,441.072 259.272,441.072 264.056,433.688 L 412.24,205.248 Z"  />
<glyph unicode="&#x37;" d="M 506.00,233.928 C 513.472,229.272 513.472,221.656 506.00,217.008 L 285.592,79.696 C 278.128,75.048 272.008,78.432 272.008,87.232 L 272.008,363.68 C 272.008,372.48 278.12,375.872 285.592,371.216 L 506.00,233.928 ZM 236.088,233.928 C 243.552,229.28 243.552,221.656 236.088,217.016 L 13.712,78.488 C 6.248,73.84 0.136,77.224 0.136,86.024 L 0.136,364.936 C 0.136,373.736 6.24,377.128 13.712,372.472 L 236.088,233.928 Z"  />
<glyph unicode="&#x2a;" d="M 504.016,299.20 C 512.752,298.168 514.616,292.40 508.168,286.432 L 383.288,170.64 L 416.248,3.56 C 417.96-5.064 413.064-8.624 405.376-4.328 L 256.688,78.656 L 107.968-4.328 C 100.28-8.624 95.392-5.064 97.096,3.56 L 130.08,170.64 L 5.184,286.408 C -1.264,292.392 0.608,298.152 9.344,299.20 L 178.448,319.496 L 249.968,474.008 C 253.664,481.992 259.712,481.992 263.408,474.008 L 334.92,319.488 L 504.016,299.20 Z"  />
<glyph unicode="&#x66;" d="M 447.992,321.992 L 447.992,319.60 L 288.00,319.60 L 288.00,479.648 L 289.272,479.648 C 298.072,479.648 310.384,474.576 316.632,468.376 L 436.632,349.264 C 442.88,343.064 447.992,330.792 447.992,321.992 ZM 280.00,287.60 L 447.992,287.60 L 447.992-7.936 C 447.992-21.136 437.192-31.936 423.992-31.936 L 87.992-31.936 C 74.792-31.936 63.992-21.136 63.992-7.936 L 63.992,455.64 C 63.992,468.84 74.792,479.64 87.992,479.64 L 256.00,479.64 L 256.00,311.60 C 256.00,298.40 266.80,287.60 280.00,287.60 Z"  />
<glyph unicode="&#x47;" d="M 511.544,463.768 L 511.544,419.056 C 511.544,410.256 506.232,398.192 499.744,392.24 L 287.976,198.224 L 287.976,32.00 C 287.976,23.192 282.536,11.288 275.88,5.52 L 236.032-28.976 C 229.384-34.744 223.936-32.264 223.936-23.456 L 223.936,197.352 L 11.96,392.224 C 5.488,398.184 0.184,410.256 0.184,419.056 L 0.184,463.768 C 0.184,472.576 7.376,479.768 16.184,479.768 L 495.536,479.768 C 504.336,479.768 511.536,472.576 511.536,463.768 Z"  />
<glyph unicode="&#x46;" d="M 511.528,296.60 L 484.872,57.376 C 483.336,43.416 470.616,32.00 456.576,32.00 L 51.68,32.00 C 37.648,32.00 24.912,43.416 23.376,57.376 L 0.536,264.152 C -0.176,277.304 9.536,287.808 22.992,287.816 C 23.00,287.816 23.008,287.816 23.016,287.816 L 239.60,287.816 C 246.616,287.816 253.288,293.488 254.408,300.416 L 255.856,307.768 C 256.992,314.688 263.656,320.36 270.664,320.36 L 488.976,320.36 C 500.952,320.36 510.096,312.024 511.592,300.92 C 511.68,299.504 511.696,298.08 511.528,296.60 ZM 25.336,319.816 L 16.00,392.328 C 14.32,405.424 23.744,416.136 36.928,416.136 L 226.36,416.136 C 232.968,416.136 239.488,410.856 240.848,404.392 L 242.56,396.312 C 243.928,389.848 250.448,384.568 257.048,384.568 L 455.392,384.568 C 468.584,384.568 479.40,373.768 479.40,360.568 L 479.40,352.36 L 270.664,352.36 C 250.288,352.36 232.168,338.784 225.96,319.816 L 25.336,319.816 Z"  />
<glyph unicode="&#x77;" d="M 505.744,248.544 C 513.136,243.88 513.136,236.24 505.744,231.568 L 269.056,81.992 C 261.68,77.328 255.632,80.656 255.632,89.392 L 255.632,170.544 C 202.432,170.352 86.44,155.248 25.624,42.256 C 18.552,29.544 13.168,22.072 5.992,25.048 C -0.728,27.864 0.008,36.424 0.68,48.432 C 18.392,273.712 203.12,307.408 255.632,310.048 L 255.632,390.728 C 255.632,399.464 261.68,402.792 269.056,398.128 L 505.744,248.544 Z"  />
<glyph unicode="&#x3f;" d="M 482.488,480.392L 29.56,480.392 c-16.248,0.00-29.536-13.296-29.536-29.536l0.00-452.904 c0.00-16.248, 13.296-29.528, 29.536-29.528l 452.928,0.00 
		c 16.24,0.00, 29.528,13.28, 29.528,29.528L 512.016,450.848 C 512.024,467.096, 498.736,480.392, 482.488,480.392z M 480.024,0.408l-448.00,0.00 L 32.024,448.392 l 448.00,0.00 L 480.024,0.408 zM 213.224,117.768L 298.584,117.768L 298.584,32.40L 213.224,32.40zM 258.232,353.888 C 232.272,353.888 218.496,334.168 216.928,292.688 L 149.92,292.688 L 150.184,296.664 C 151.424,326.864 158.136,350.56 170.304,369.792 C 189.912,400.872 219.496,416.416 259.048,416.416 C 290.48,416.416 315.464,406.696 334.00,387.272 C 352.72,367.68 362.088,342.784 362.088,312.584 C 362.088,289.608 356.608,270.464 345.656,255.104 C 336.992,243.44 325.88,231.88 312.28,220.40 C 304.144,213.688 298.592,208.128 295.592,203.712 C 288.88,193.464 285.096,181.984 284.912,169.28 C 284.688,165.888 284.568,163.016 284.488,160.384 L 223.352,160.384 C 223.552,187.568 226.288,208.176 232.272,222.256 C 235.984,229.84 241.72,237.784 249.488,246.088 C 256.192,252.792 262.28,258.888 267.752,264.36 C 278.36,274.768 285.16,284.136 288.16,292.44 C 290.456,299.32 291.608,306.392 291.608,313.624 C 291.608,324.40 289.144,333.312 284.192,340.384 C 278.008,349.384 269.368,353.888 258.232,353.888 Z"  />
<glyph unicode="&#x3c;" d="M 199.712,80.00L 311.712,80.00L 311.712-32.00L 199.712-32.00zM 363.816,440.784 C 389.096,414.312 401.736,380.696 401.744,339.864 C 401.744,308.864 394.368,283.00 379.56,262.248 C 367.888,246.512 352.856,230.888 334.496,215.384 C 323.528,206.344 316.024,198.808 311.976,192.856 C 302.904,179.032 297.776,163.528 297.544,146.36 C 297.064,138.968 296.84,132.904 296.84,128.136 L 214.336,128.136 C 214.336,128.136 214.424,132.184 214.424,133.872 C 214.648,170.808 218.368,198.84 226.48,217.936 C 231.488,228.176 239.248,238.904 249.744,250.128 C 258.792,259.184 267.016,267.408 274.416,274.808 C 288.728,288.872 297.888,301.52 301.96,312.72 C 305.064,322.024 306.608,331.552 306.608,341.344 C 306.608,355.888 303.272,367.936 296.576,377.472 C 288.232,389.624 276.56,395.712 261.528,395.712 C 226.456,395.712 207.856,369.072 205.712,313.032 L 115.384,313.032 L 115.576,318.40 C 117.248,359.184 126.304,391.176 142.768,417.176 C 169.232,459.136 209.184,480.136 262.60,480.136 C 305.032,480.136 338.784,467.008 363.816,440.784 Z"  />
<glyph unicode="&#x68;" d="M 256.152,400.12 L 256.216,400.056 L 464.488,191.656 L 464.488,25.92 C 464.488,11.92 453.016,0.448 439.016,0.448 L 73.408,0.448 C 59.408,0.448 47.952,11.92 47.952,25.92 L 47.952,191.656 L 256.152,400.12 ZM 277.016,469.024 L 511.864,234.20 L 489.472,211.80 L 256.192,445.216 L 256.16,445.184 L 256.128,445.216 L 22.848,211.80 L 0.456,234.20 L 235.272,469.024 C 240.96,474.72 248.512,477.608 256.04,477.608 C 256.072,477.608 256.104,477.592 256.136,477.592 C 256.168,477.592 256.192,477.608 256.224,477.608 C 263.784,477.608 271.312,474.72 277.016,469.024 Z"  />
<glyph unicode="&#x28;" d="M 421.24,256.184 C 430.024,256.184 433.312,250.152 428.528,242.768 L 280.344,14.328 C 275.56,6.944 267.72,6.944 262.936,14.328 L 114.752,242.768 C 109.968,250.152 113.24,256.192 122.04,256.192 L 208.008,256.192 L 208.008,424.12 C 208.008,437.312 218.808,448.12 232.008,448.12 L 312.008,448.12 C 325.216,448.12 336.008,437.312 336.008,424.12 L 336.008,256.184 L 421.24,256.184 Z"  />
<glyph unicode="&#x69;" d="M 480.072,479.888l-448.00,0.00 c-17.60,0.00-32.00-14.40-32.00-32.00l0.00-447.984 c0.00-17.608, 14.40-32.00, 32.00-32.00l 448.00,0.00 c 17.60,0.00, 32.00,14.392, 32.00,32.00L 512.072,447.888 
		C 512.072,465.496, 497.672,479.888, 480.072,479.888z M 480.072-0.096l-448.00,0.00 L 32.072,447.888 l 448.00,0.00 L 480.072-0.096 zM 257.168,320.112 C 231.168,320.112 209.104,341.672 209.096,368.184 C 209.096,395.264 231.168,416.24 257.168,416.24 C 284.20,416.24 305.20,395.264 305.20,368.184 C 305.20,341.672 284.20,320.112 257.168,320.112 ZM 332.232,59.296 L 332.232,32.24 L 181.864,32.24 L 181.864,59.304 C 211.608,62.688 216.136,65.44 216.136,97.52 L 216.136,212.704 C 216.136,246.944 213.32,247.552 181.864,251.488 L 181.864,272.272 C 215.592,276.80 257.032,284.664 298.592,292.512 L 298.592,97.512 C 298.592,65.448 302.432,62.68 332.232,59.296 Z"  />
<glyph unicode="&#x3e;" d="M 255.84,351.768 C 221.168,351.768 191.744,380.504 191.736,415.864 C 191.736,451.96 221.168,479.936 255.84,479.936 C 291.888,479.936 319.872,451.96 319.872,415.864 C 319.872,380.512 291.888,351.768 255.84,351.768 ZM 311.056,54.976 C 311.056,12.20 316.168,8.496 355.936,4.016 L 355.936-32.072 L 155.416-32.072 L 155.416,4.016 C 195.08,8.496 201.128,12.20 201.128,54.976 L 201.128,208.544 C 201.128,254.208 197.368,255.016 155.416,260.28 L 155.416,287.984 C 200.384,294.024 255.632,304.496 311.056,314.976 L 311.056,54.976 Z"  />
<glyph unicode="&#x52;" d="M 488.176,416.00l-464.00,0.00 c-13.20,0.00-24.00-10.80-24.00-24.00l0.00-272.00 c0.00-13.20, 10.80-24.00, 24.00-24.00l 183.872,0.00 l0.00-62.92 l-104.00,0.00 c-4.40,0.00-8.00-3.60-8.00-8.00l0.00-16.968 c0.00-4.40, 3.60-8.00, 8.00-8.00l 304.00,0.00 
	c 4.40,0.00, 8.00,3.60, 8.00,8.00l0.00,16.968 c0.00,4.40-3.60,8.00-8.00,8.00l-104.00,0.00 L 304.048,96.00 l 184.128,0.00 c 13.20,0.00, 24.00,10.80, 24.00,24.00L 512.176,392.00 C 512.176,405.20, 501.384,416.00, 488.176,416.00z M 480.176,128.00l-448.00,0.00 L 32.176,384.00 
	l 448.00,0.00 L 480.176,128.00 z"  />
<glyph unicode="&#x6c;" d="M 477.296,444.52C 454.88,466.936, 424.456,479.28, 391.624,479.28c-35.496,0.00-70.672-14.808-96.496-40.64L 204.24,347.752
		c 8.648,1.456, 17.392,2.296, 26.176,2.296c 19.576,0.00, 38.416-3.832, 55.976-10.648l 53.984,53.992c 13.92,13.912, 32.60,21.896, 51.248,21.896
		c 15.736,0.00, 30.088-5.688, 40.416-16.016c 23.648-23.656, 21.008-64.776-5.88-91.672L 334.408,215.832c-13.912-13.912-32.584-21.896-51.24-21.896
		c-15.736,0.00-30.088,5.688-40.424,16.032c-3.488,3.488-6.376,7.448-8.76,11.72c-1.176,0.152-2.32,0.368-3.568,0.368
		c-10.224,0.00-20.664-4.568-28.632-12.52l-21.96-21.968c 4.92-8.216, 10.744-15.928, 17.664-22.848c 22.416-22.424, 52.84-34.776, 85.672-34.776
		c 35.504,0.00, 70.68,14.816, 96.504,40.648l 91.752,91.768C 523.256,314.192, 525.888,395.912, 477.296,444.52zM 226.904,108.344 C 244.496,101.512 263.472,97.848 283.088,97.856 C 291.824,97.856 300.52,98.616 309.112,100.048 L 218.424,9.352 C 192.592-16.472 157.424-31.288 121.92-31.288 C 89.088-31.288 58.672-18.944 36.256,3.472 C 12.416,27.312 0.112,59.72 1.616,94.72 C 3.072,128.68 17.472,160.976 42.144,185.648 L 133.904,277.40 C 159.736,303.224 194.904,318.04 230.408,318.04 C 263.24,318.04 293.656,305.696 316.072,283.28 C 322.992,276.352 328.824,268.64 333.744,260.416 L 311.712,238.368 C 303.744,230.416 293.312,225.848 283.088,225.848 C 281.872,225.848 280.776,226.056 279.624,226.20 C 277.232,230.512 274.328,234.512 270.816,238.024 C 260.488,248.352 246.136,254.04 230.408,254.04 C 211.752,254.04 193.072,246.064 179.16,232.144 L 87.392,140.392 C 74.08,127.08 66.32,109.88 65.552,91.968 C 64.832,75.096 70.496,59.736 81.512,48.72 C 91.832,38.40 106.184,32.712 121.912,32.712 C 140.568,32.712 159.248,40.688 173.16,54.60 L 226.904,108.344 Z"  />
<glyph unicode="&#x3d;" d="M 67.992,320.584 C 65.792,320.584 63.992,322.384 63.992,324.584 L 63.992,380.584 C 63.992,382.784 65.792,384.584 67.992,384.584 L 443.96,384.584 C 446.16,384.584 447.96,382.784 447.96,380.584 L 447.96,324.584 C 447.96,322.384 446.16,320.584 443.96,320.584 L 67.992,320.584 ZM 444.04,256.20 C 446.24,256.20 448.04,254.40 448.04,252.20 L 448.04,196.20 C 448.04,194.00 446.24,192.20 444.04,192.20 L 67.992,192.20 C 65.792,192.20 63.992,194.00 63.992,196.20 L 63.992,252.20 C 63.992,254.40 65.792,256.20 67.992,256.20 L 444.04,256.20 ZM 443.96,128.208 C 446.168,128.208 447.96,126.416 447.96,124.208 L 447.96,68.208 C 447.96,66.008 446.16,64.208 443.96,64.208 L 67.992,64.208 C 65.792,64.208 63.992,66.008 63.992,68.208 L 63.992,124.208 C 63.992,126.408 65.792,128.208 67.992,128.208 L 443.96,128.208 Z"  />
<glyph unicode="&#x6f;" d="M 256.264,480.112c-141.384,0.00-256.00-114.616-256.00-256.00s 114.616-256.00, 256.00-256.00c 141.392,0.00, 256.00,114.616, 256.00,256.00S 397.656,480.112, 256.264,480.112z
	 M 338.064,417.064l-14.28-33.736c-1.808-4.256-8.392-5.808-12.456-5.00l-0.048-0.12c-17.296,6.216-35.832,9.80-55.24,9.80
	c-86.656,0.00-157.608-67.664-163.296-152.904C 92.648,232.168, 92.648,232.00, 92.648,232.00c-0.12-4.336-4.32-7.88-9.352-7.88L 46.464,224.12 
	c-5.032,0.00-9.064,3.744-8.96,8.32c0.00,0.00, 0.128,3.20, 0.152,3.784l 0.04,0.00 C 43.984,351.392, 139.304,442.864, 256.04,442.864
	c 27.016,0.00, 52.88-4.928, 76.768-13.88l-0.048-0.112c 0.296-0.08, 0.624-0.136, 0.888-0.24C 338.048,426.904, 340.032,421.696, 338.064,417.064z"  />
<glyph unicode="&#x4c;" d="M 164.152,352.408 L 164.152,256.208 L 128.152,256.208 L 128.152,352.408 C 128.152,422.92 185.504,480.288 256.00,480.288 C 326.504,480.288 383.864,422.92 383.864,352.408 L 383.864,256.208 L 347.864,256.208 L 347.864,352.408 C 347.864,403.072 306.656,444.288 256.00,444.288 C 205.352,444.288 164.152,403.072 164.152,352.408 ZM 423.992,224.368 C 437.192,224.368 447.992,213.56 447.992,200.368 L 447.992-7.264 C 447.992-20.464 437.192-31.264 423.992-31.264 L 87.976-31.264 C 74.776-31.264 63.976-20.464 63.976-7.264 L 63.976,200.368 C 63.976,213.56 74.776,224.368 87.976,224.368 L 423.992,224.368 Z"  />
<glyph unicode="&#x48;" d="M 249.88,416.136 C 239.928,406.176 239.928,390.04 249.88,380.08 L 330.664,299.328 C 324.224,286.464 320.504,272.00 320.504,256.664 L 320.504,208.36 L 233.408,199.888 L 82.744,49.224 C 81.096,47.576 77.84,46.048 75.512,45.848 L 44.088,43.056 C 43.888,43.04 43.656,43.088 43.448,43.088 C 43.064,43.04 42.736,42.936 42.32,42.896 L 15.392,40.512 C 6.632,39.728 0.088,46.264 0.872,55.032 L 3.264,81.968 C 3.296,82.36 3.392,82.664 3.448,83.032 C 3.448,83.264 3.40,83.536 3.416,83.76 L 6.192,115.152 C 6.408,117.48 7.92,120.736 9.576,122.392 L 18.00,130.824 C 19.656,132.48 22.92,133.808 25.248,133.776 L 79.688,133.048 C 82.016,133.016 83.936,134.904 83.936,137.24 L 83.96,155.952 C 83.968,158.288 85.32,161.552 86.968,163.20 L 102.304,178.544 C 103.952,180.192 104.76,183.376 104.088,185.616 L 98.12,205.656 C 97.456,207.896 98.264,211.08 99.92,212.736 L 113.624,226.44 C 115.272,228.088 118.528,229.28 120.856,229.088 L 147.624,226.864 C 149.952,226.672 151.504,228.392 151.056,230.688 L 146.504,254.352 C 146.064,256.648 147.048,259.872 148.704,261.52 L 160.136,272.952 L 176.088,436.952 C 176.944,445.704 184.60,454.704 193.112,456.944 L 274.08,478.224 C 282.592,480.472 294.64,477.20 300.864,470.984 L 419.464,352.384 L 416.224,352.384 C 397.296,352.384 379.672,346.792 364.808,337.272 L 285.928,416.136 C 275.976,426.096 259.84,426.088 249.88,416.136 ZM 448.528,320.384l-32.304,0.00 c-35.048,0.00-63.72-28.68-63.72-63.728l0.00-245.416 c0.00-23.368, 19.12-42.488, 42.48-42.88l 74.792,0.00 
		c 23.368,0.40, 42.488,19.512, 42.488,42.88L 512.264,256.656 C 512.256,291.704, 483.576,320.384, 448.528,320.384z M 432.592,208.248c-17.664,0.00-32.00,14.312-32.00,32.00
		c0.00,17.672, 14.336,32.008, 32.00,32.008c 17.672,0.00, 32.00-14.336, 32.00-32.008C 464.592,222.56, 450.264,208.248, 432.592,208.248z"  />
<glyph unicode="&#x6d;" d="M 488.416,415.776l-464.00,0.00 c-13.20,0.00-24.00-10.80-24.00-24.00l0.00-335.432 c0.00-13.20, 10.80-24.00, 24.00-24.00l 464.00,0.00 c 13.20,0.00, 24.00,10.80, 24.00,24.00L 512.416,391.776 
	C 512.416,404.976, 501.616,415.776, 488.416,415.776z M 268.512,212.576c-3.64-3.392-7.64-4.896-12.416-5.032
	c-4.168-0.184-8.44,1.64-12.264,5.20L 54.20,383.776l 404.128,0.00 L 268.512,212.576z M 188.76,219.328L 32.408,87.168L 32.408,360.336 L 188.76,219.328z
	 M 212.736,197.704l 9.472-8.528c 9.432-8.808, 21.392-13.624, 33.408-13.624c 0.32,0.016, 0.656,0.016, 0.984,0.00c 12.32,0.00, 24.272,4.832, 33.536,13.448
	l 10.176,9.176l 158.328-133.832L 54.968,64.344 L 212.736,197.704z M 324.296,219.80l 156.12,140.808L 480.416,87.84 L 324.296,219.80z"  />
<glyph unicode="&#x4d;" d="M 400.112,211.784 C 400.112,137.60 342.968,74.20 272.096,65.672 L 272.096,0.40 L 350.72,0.40 C 359.552,0.40 366.72-6.768 366.72-15.60 C 366.72-24.432 359.552-31.60 350.72-31.60 L 161.04-31.60 C 152.208-31.60 145.04-24.432 145.04-15.60 C 145.04-6.768 152.208,0.40 161.04,0.40 L 240.096,0.40 L 240.096,65.616 C 169.00,73.976 111.624,137.768 111.624,212.424 L 111.624,254.688 C 111.624,263.52 118.792,270.688 127.624,270.688 C 136.456,270.688 143.624,263.52 143.624,254.688 L 143.624,212.424 C 143.624,149.656 195.032,96.624 255.888,96.624 C 316.72,96.624 368.112,149.36 368.112,211.784 L 368.112,255.344 C 368.112,264.176 375.28,271.344 384.112,271.344 C 392.944,271.344 400.112,264.176 400.112,255.344 L 400.112,211.784 ZM 256.088,128.608 C 212.088,128.608 176.088,166.856 176.088,213.64 L 176.088,395.176 C 176.088,441.944 212.088,480.208 256.088,480.208 C 300.072,480.208 336.088,441.944 336.088,395.176 L 336.088,213.64 C 336.088,166.856 300.08,128.608 256.088,128.608 Z"  />
<glyph unicode="&#x3a;" d="M 104.00,280.00 C 108.40,280.00 112.00,276.40 112.00,272.00 L 112.00,176.00 C 112.00,171.60 108.40,168.00 104.00,168.00 L 8.00,168.00 C 3.60,168.00 0.00,171.60 0.00,176.00 L 0.00,272.00 C 0.00,276.40 3.60,280.00 8.00,280.00 L 104.00,280.00 ZM 303.784,280.00 C 308.168,280.00 311.784,276.40 311.784,272.00 L 311.784,176.00 C 311.784,171.60 308.176,168.00 303.784,168.00 L 207.784,168.00 C 203.384,168.00 199.784,171.60 199.784,176.00 L 199.784,272.00 C 199.784,276.40 203.384,280.00 207.784,280.00 L 303.784,280.00 ZM 504.00,280.00 C 508.408,280.00 512.00,276.40 512.00,272.00 L 512.00,176.00 C 512.00,171.60 508.408,168.00 504.00,168.00 L 408.00,168.00 C 403.608,168.00 400.00,171.60 400.00,176.00 L 400.00,272.00 C 400.00,276.40 403.608,280.00 408.00,280.00 L 504.00,280.00 Z"  />
<glyph unicode="&#x44;" d="M 424.40,447.568 C 437.584,447.552 447.536,436.776 446.464,423.624 L 443.296,383.896 L 69.728,383.896 L 66.384,424.088 C 65.296,437.232 75.20,447.984 88.392,447.968 L 192.136,447.84 L 192.136,456.00 C 192.136,469.20 202.936,480.00 216.136,480.00 L 295.808,480.00 C 309.008,480.00 319.808,469.20 319.808,456.00 L 319.808,447.696 L 424.40,447.568 ZM 102.36-8.04c 1.096-13.152, 12.792-23.912, 25.992-23.912l 257.712,0.00 c 13.20,0.00, 24.856,10.768, 25.904,23.92l 28.768,359.92L 72.40,351.888 L 102.36-8.04
		z M 330.496,272.688c 0.40,8.832, 8.04,15.696, 16.696,15.272c 8.832-0.392, 15.664-7.864, 15.272-16.696l-9.952-223.976
		C 352.128,38.704, 345.048,32.00, 336.536,32.00c-0.24,0.00-0.488,0.008-0.728,0.016c-8.832,0.392-15.664,7.864-15.272,16.696L 330.496,272.688z
		 M 240.296,272.008c0.00,8.832, 7.168,16.00, 16.00,16.00c 8.84,0.00, 16.00-7.168, 16.00-16.00l0.00-223.704 c0.00-8.832-7.168-16.00-16.00-16.00c-8.832,0.00-16.00,7.168-16.00,16.00L 240.296,272.008 z M 165.328,287.968
		c 8.976,0.52, 16.32-6.408, 16.736-15.232l 10.472-223.584c 0.408-8.832-6.408-16.32-15.232-16.736c-0.256-0.008-0.512-0.016-0.76-0.016
		c-8.496,0.00-15.568,6.68-15.976,15.248l-10.472,223.584C 149.68,280.064, 156.496,287.552, 165.328,287.968z"  />
<glyph unicode="&#x55;" d="M 512.472,7.544 L 512.408,7.544 C 512.416,7.432 512.472,7.344 512.472,7.232 L 512.472,4.00 C 512.472,1.80 510.672,0.00 508.472,0.00 L 4.368,0.00 C 2.168,0.00 0.376,1.80 0.384,4.00 L 0.40,7.24 C 0.40,7.368 0.464,7.472 0.472,7.608 C 0.488,8.376 0.704,9.44 0.704,9.44 C 7.592,36.936 40.336,46.472 88.672,67.232 C 110.816,76.768 172.568,102.248 175.64,103.672 C 204.256,116.832 182.936,163.576 182.808,163.688 C 182.248,162.032 180.496,159.784 179.096,158.52 C 176.632,156.296 172.832,152.92 171.896,153.72 C 170.752,154.704 173.096,158.12 174.24,162.92 C 175.496,168.312 175.928,175.576 173.96,183.00 C 173.352,180.048 172.576,177.472 170.456,175.16 C 168.976,173.552 165.368,170.664 164.568,171.864 C 163.896,173.192 164.968,175.864 166.00,179.584 C 166.856,182.696 166.672,186.664 166.616,193.40 C 167.288,203.464 164.68,211.432 161.768,214.776 C 151.336,218.528 149.824,234.04 147.136,248.56 C 145.60,257.152 145.368,265.576 146.456,272.352 C 148.232,283.376 154.424,287.728 154.424,287.728 C 154.424,287.728 146.256,286.584 143.04,281.552 C 141.128,278.584 139.344,273.352 138.44,273.608 C 137.496,273.872 138.832,280.672 139.288,286.28 C 143.64,340.552 154.848,380.856 176.712,396.176 C 178.40,399.40 172.016,398.368 165.672,396.688 C 160.08,395.216 155.04,392.504 154.544,393.248 C 154.048,393.992 159.224,398.248 164.336,402.304 C 177.936,413.088 204.416,429.184 242.432,434.48 C 242.432,434.48 238.12,435.704 231.416,437.096 C 224.552,438.512 218.52,438.352 218.352,439.336 C 218.16,440.472 227.632,442.68 232.888,443.496 C 251.60,446.368 272.064,441.264 284.248,435.984 C 283.544,437.016 281.664,439.304 278.832,441.472 C 274.832,444.536 271.096,446.008 271.488,446.64 C 271.88,447.272 280.84,444.832 284.984,443.176 C 300.864,436.856 311.184,424.568 312.368,421.552 C 312.216,421.568 312.632,424.68 312.304,426.936 C 311.632,431.344 309.632,434.808 310.04,435.744 C 310.352,436.512 317.624,429.464 320.152,427.192 C 332.368,416.296 339.136,405.648 345.192,390.072 C 351.944,382.912 358.12,366.936 359.808,360.288 C 364.704,344.888 370.008,321.896 371.24,299.736 C 371.64,292.536 372.176,287.608 372.176,287.608 C 372.176,287.608 373.328,277.528 372.312,277.344 C 371.208,277.128 370.56,280.968 366.712,284.272 C 357.872,291.864 358.176,286.672 362.608,280.88 C 364.832,278.816 367.896,274.544 368.592,268.264 C 369.352,261.48 368.224,247.504 367.256,238.296 C 365.904,223.64 364.088,209.80 353.512,206.60 C 350.44,203.40 351.184,196.40 351.312,186.336 C 350.88,178.576 350.304,174.448 350.328,170.824 C 350.336,168.368 350.848,165.48 350.048,164.416 C 348.584,163.744 346.88,166.024 345.784,167.616 C 343.976,170.256 343.952,173.16 343.456,176.32 C 340.224,166.064 340.64,158.08 340.048,153.208 C 339.928,152.272 339.512,144.80 338.712,143.472 C 337.968,142.248 334.976,144.936 333.64,147.064 C 332.12,149.496 331.312,154.56 330.488,157.592 C 330.376,157.472 310.088,116.28 334.248,103.688 C 337.24,102.064 399.08,76.776 421.232,67.248 C 467.456,47.368 502.616,35.648 511.768,10.432 C 511.768,10.432 512.472,8.184 512.472,7.544 Z"  />
<glyph unicode="&#x24;" d="M 413.832,337.808 L 263.84,74.208 C 259.488,66.56 252.36,66.56 248.00,74.208 L 97.92,337.808 C 93.56,345.456 97.20,351.712 106.00,351.712 L 405.736,351.712 C 414.536,351.712 418.176,345.456 413.832,337.808 Z"  />
<glyph unicode="&#x25;" d="M 370.184,66.16 L 106.592,216.136 C 98.944,220.488 98.936,227.616 106.592,231.968 L 370.20,382.064 C 377.84,386.416 384.088,382.776 384.088,373.976 L 384.088,74.248 C 384.088,65.448 377.84,61.808 370.184,66.16 Z"  />
<glyph unicode="&#xa7;" d="M 141.896,66.16c-7.648-4.352-13.904-0.712-13.904,8.088L 127.992,373.976 c0.00,8.80, 6.248,12.44, 13.904,8.088l 263.592-150.096
	c 7.656-4.352, 7.648-11.48,0.00-15.832L 141.896,66.16z"  />
<glyph unicode="&#x22;" d="M 413.952,109.80c 4.352-7.648, 0.712-13.904-8.088-13.904L 106.136,95.896 c-8.80,0.00-12.44,6.256-8.08,13.904l 150.08,263.592
	c 4.36,7.648, 11.488,7.648, 15.832,0.00L 413.952,109.80z"  />
<glyph unicode="&#x38;" d="M 341.504,232.256 C 349.168,227.904 349.16,220.776 341.504,216.424 L 77.912,66.44 C 70.264,62.08 64.008,65.72 64.008,74.52 L 64.008,374.256 C 64.008,383.056 70.256,386.696 77.912,382.344 L 341.504,232.256 ZM 448.008,383.992 C 456.808,383.992 464.008,376.792 464.008,367.992 L 464.008,79.992 C 464.008,71.176 456.808,63.992 448.008,63.992 L 384.008,63.992 C 375.208,63.992 368.008,71.176 368.008,79.992 L 368.008,367.992 C 368.008,376.80 375.208,383.992 384.008,383.992 L 448.008,383.992 Z"  />
<glyph unicode="&#x35;" d="M 224.008,383.992 C 232.808,383.992 240.008,376.80 240.008,367.992 L 240.008,79.992 C 240.008,71.184 232.808,63.992 224.008,63.992 L 160.008,63.992 C 151.208,63.992 144.008,71.184 144.008,79.992 L 144.008,367.992 C 144.008,376.80 151.208,383.992 160.008,383.992 L 224.008,383.992 ZM 352.008,383.992 C 360.808,383.992 368.008,376.80 368.008,367.992 L 368.008,79.992 C 368.008,71.184 360.808,63.992 352.008,63.992 L 288.008,63.992 C 279.208,63.992 272.008,71.184 272.008,79.992 L 272.008,367.992 C 272.008,376.80 279.208,383.992 288.008,383.992 L 352.008,383.992 Z"  />
<glyph unicode="&#x34;" d="M 128.376,406.264c0.00,8.808, 6.104,12.176, 13.56,7.504l 289.592-181.504c 7.464-4.68, 7.464-12.32,0.00-17.00L 141.936,33.776
	c-7.464-4.672-13.56-1.296-13.56,7.504L 128.376,406.264 z"  />
<glyph unicode="&#x32;" d="M 434.144,382.352 C 441.784,386.704 448.032,383.064 448.032,374.264 L 448.032,74.536 C 448.032,65.736 441.784,62.096 434.128,66.456 L 170.528,216.424 C 162.88,220.776 162.88,227.904 170.52,232.256 L 434.144,382.352 ZM 128.032,383.992 C 136.84,383.992 144.032,376.80 144.032,367.992 L 144.032,79.992 C 144.032,71.184 136.84,63.992 128.032,63.992 L 64.032,63.992 C 55.224,63.992 48.032,71.184 48.032,79.992 L 48.032,367.992 C 48.032,376.80 55.224,383.992 64.032,383.992 L 128.032,383.992 Z"  />
<glyph unicode="&#x70;" d="M 127.408,415.848 L 127.408,319.848 L 95.408,319.848 L 95.408,431.848 C 95.408,440.648 102.608,447.848 111.408,447.848 L 400.232,447.848 C 409.032,447.848 416.232,440.648 416.232,431.848 L 416.232,319.848 L 384.232,319.848 L 384.232,415.848 L 127.408,415.848 ZM 488.04,287.92l-464.00,0.00 c-13.20,0.00-24.00-10.80-24.00-24.00l0.00-176.072 c0.00-13.192, 10.80-24.00, 24.00-24.00l 40.016,0.00 l0.00-80.00 c0.00-8.80, 7.20-16.00, 16.00-16.00l 351.936,0.00 c 8.80,0.00, 16.00,7.20, 16.00,16.00l0.00,80.00 
		l 40.048,0.00 c 13.20,0.00, 24.00,10.808, 24.00,24.00L 512.04,263.92 C 512.04,277.128, 501.24,287.92, 488.04,287.92z M 415.992-0.152L 96.056-0.152 L 96.056,159.832 l 319.936,0.00 L 415.992-0.152 z
		 M 479.992,207.656l-48.00,0.00 l0.00,48.00 l 48.00,0.00 L 479.992,207.656 z"  />
<glyph unicode="&#x2e;" d="M 95.76,224.552A159.992,159.992 180.00 1,0 415.744,224.552A159.992,159.992 180.00 1,0 95.76,224.552z"  />
<glyph unicode="&#x67;" d="M 256.544,416.024 C 379.92,416.024 480.288,315.664 480.288,192.304 C 480.288,68.912 379.92-31.464 256.544-31.464 C 134.48-31.464 34.984,66.816 32.888,188.408 C 32.888,188.408 32.416,203.768 32.424,203.976 L 32.424,204.064 L 32.424,204.064 C 32.72,211.44 38.736,217.376 46.216,217.376 L 98.848,217.376 C 106.312,217.376 112.416,211.44 112.80,204.064 L 112.872,204.064 L 112.872,190.608 C 113.792,112.12 177.848,48.536 256.544,48.536 C 335.792,48.536 400.288,113.04 400.288,192.304 C 400.288,271.544 335.80,336.024 256.544,336.024 C 256.496,336.024 256.432,336.024 256.384,336.024 L 256.384,280.944 C 256.384,272.136 250.248,268.704 242.744,273.296 L 89.24,367.248 C 81.736,371.84 81.736,379.368 89.24,383.96 L 242.744,477.96 C 250.24,482.552 256.384,479.12 256.384,470.32 L 256.384,416.024 C 256.432,416.024 256.496,416.024 256.544,416.024 Z"  />
<glyph unicode="&#x72;" d="M 511.048,32.84 C 511.72,20.84 512.456,12.28 505.736,9.472 C 498.568,6.488 493.176,13.952 486.112,26.672 C 425.288,139.672 309.296,154.768 256.104,154.96 L 256.104,73.816 C 256.104,65.08 250.056,61.752 242.68,66.424 L 5.992,216.00 C -1.40,220.664 -1.40,228.304 5.992,232.968 L 242.68,382.544 C 250.056,387.208 256.104,383.88 256.104,375.144 L 256.104,294.456 C 308.608,291.824 493.344,258.12 511.048,32.84 Z"  />
<glyph unicode="&#x33;" d="M 226.256,369.864 C 233.728,374.52 239.832,371.128 239.832,362.328 L 239.832,85.872 C 239.832,77.08 233.72,73.696 226.256,78.344 L 5.848,215.656 C -1.624,220.304 -1.624,227.92 5.848,232.576 L 226.256,369.864 ZM 498.128,371.12 C 505.60,375.776 511.72,372.384 511.72,363.584 L 511.72,84.672 C 511.72,75.88 505.60,72.488 498.128,77.144 L 275.768,215.656 C 268.296,220.304 268.296,227.928 275.768,232.576 L 498.128,371.12 Z"  />
<glyph unicode="&#x4e;" d="M 256.392-31.616 C 221.312-31.616 192.848-3.376 192.432,31.608 L 320.352,31.608 C 319.928-3.376 291.48-31.616 256.392-31.616 ZM 494.12,441.568c-7.792,7.832-20.44,7.864-28.288,0.088L 382.88,359.208c-22.56,31.736-55.32,53.064-90.496,61.296l-0.04,0.104
		c-1.352,0.288-2.648,0.504-3.96,0.752L 288.384,447.60 c0.00,17.672-14.32,32.00-32.00,32.00c-17.672,0.00-32.00-14.328-32.00-32.00l0.00-26.296 c-1.216-0.224-2.416-0.432-3.664-0.696
		l0.00-0.008c-61.816-14.328-116.808-68.568-121.128-149.68l-4.064-37.744c0.00,0.00-6.952-106.464-60.064-150.24c-4.384-4.368-4.384-11.488,0.00-15.872
		c 2.192-2.20, 5.064-3.288, 7.936-3.288l 42.224,0.00 l-62.168-61.80c-7.832-7.792-7.872-20.456-0.088-28.288
		c 3.904-3.928, 9.04-5.896, 14.184-5.896c 5.096,0.00, 10.20,1.936, 14.096,5.816L 494.032,413.288C 501.856,421.072, 501.896,433.736, 494.12,441.568zM 417.272,233.168 C 417.272,233.168 424.776,119.856 477.296,82.928 C 481.704,78.56 481.704,71.448 477.296,67.056 C 475.096,64.856 472.248,63.768 469.392,63.768 L 198.84,63.768 L 412.72,276.464 C 412.888,274.616 413.104,272.80 413.208,270.912 L 417.272,233.168 Z"  />
<glyph unicode="&#x6e;" d="M 477.52,83.168 C 481.92,78.80 481.92,71.68 477.52,67.288 C 475.32,65.088 472.464,64.00 469.608,64.00 L 43.624,64.00 C 40.752,64.00 37.88,65.088 35.68,67.296 C 31.296,71.68 31.296,78.80 35.68,83.168 C 88.792,126.944 95.744,233.408 95.744,233.408 L 99.808,271.152 C 104.128,352.264 159.12,406.504 220.936,420.832 L 220.936,420.84 C 222.184,421.104 223.384,421.312 224.60,421.536 L 224.60,447.832 C 224.60,465.504 238.928,479.832 256.60,479.832 C 274.272,479.832 288.60,465.504 288.60,447.832 L 288.60,421.592 C 289.912,421.352 292.584,420.752 292.584,420.752 C 354.256,406.32 409.088,352.136 413.416,271.152 L 417.48,233.408 C 417.48,233.408 424.992,120.096 477.52,83.168 ZM 256.608-31.384 C 221.52-31.384 193.064-3.144 192.648,31.84 L 320.568,31.84 C 320.144-3.144 291.696-31.384 256.608-31.384 Z"  />
<glyph unicode="&#x29;" d="M 440.08,288.432 C 453.272,288.432 464.08,277.624 464.08,264.432 L 464.08,184.432 C 464.08,171.24 453.272,160.432 440.08,160.432 L 272.152,160.432 L 272.152,75.20 C 272.152,66.40 266.112,63.112 258.728,67.912 L 30.288,216.096 C 22.904,220.88 22.904,228.72 30.288,233.504 L 258.728,381.688 C 266.112,386.488 272.152,383.208 272.152,374.40 L 272.152,288.432 L 440.08,288.432 Z"  />
<glyph unicode="&#x2f;" d="M 482.608,232.712 C 489.992,227.912 489.992,220.088 482.616,215.288 L 254.176,67.104 C 246.792,62.32 240.752,65.60 240.752,74.40 L 240.752,159.632 L 72.824,159.632 C 59.632,159.632 48.824,170.432 48.824,183.632 L 48.824,263.632 C 48.824,276.832 59.632,287.632 72.824,287.632 L 240.744,287.632 L 240.744,373.60 C 240.744,382.40 246.784,385.68 254.168,380.896 L 482.608,232.712 Z"  />
<glyph unicode="&#x71;" d="M 318.984,478.424c-106.856,0.00-193.456-86.592-193.456-193.448c0.00-106.824, 86.592-193.432, 193.456-193.448
		c 106.824,0.016, 193.424,86.624, 193.424,193.448C 512.408,391.832, 425.808,478.424, 318.984,478.424z M 318.992,127.528
		c-86.824,0.016-157.464,70.64-157.464,157.448c0.00,86.816, 70.632,157.448, 157.456,157.448c 86.808,0.00, 157.424-70.632, 157.424-157.448
		C 476.408,198.168, 405.784,127.544, 318.992,127.528zM 131.392,159.40 C 147.704,135.176 168.584,114.28 192.784,97.96 C 165.952,71.744 86.096-6.328 77.112-15.344 C 31.96-60.52 -28.808,3.432 16.248,47.192 C 26.192,56.848 105.232,133.904 131.392,159.40 Z"  />
<glyph unicode="&#x53;" d="M 511.984,251.488c-0.008,4.40-3.568,8.52-7.92,9.16l-67.528,9.832c-4.432,17.432-11.336,33.864-20.296,48.944l 40.56,55.008
	c 2.608,3.536, 2.192,8.984-0.92,12.096l-38.064,38.024c-3.112,3.112-8.544,3.504-12.072,0.872l-54.688-40.792
	C 335.968,393.60, 319.52,400.52, 302.08,404.96l-10.184,67.488c-0.656,4.344-4.80,7.904-9.192,7.904L 228.88,480.336c-4.40,0.00-8.52-3.56-9.16-7.912
	l-9.832-67.48c-17.44-4.448-33.88-11.368-48.968-20.344l-54.976,40.52c-3.544,2.616-8.984,2.20-12.096-0.904l-38.024-38.048
	c-3.112-3.112-3.504-8.536-0.872-12.072l 40.80-54.736c-8.952-15.08-15.856-31.52-20.288-48.96L 7.92,260.176
	c-4.344-0.656-7.904-4.80-7.904-9.192l 0.032-53.768c 0.008-4.40, 3.568-8.52, 7.92-9.16l 67.56-9.848
	c 4.44-17.408, 11.352-33.816, 20.312-48.856l-40.592-55.08c-2.608-3.536-2.20-8.984, 0.912-12.096l 38.032-38.024
	c 3.12-3.112, 8.536-3.504, 12.072-0.872l 54.848,40.872c 15.04-8.928, 31.432-15.824, 48.816-20.24l 10.232-67.656c 0.656-4.344, 4.80-7.904, 9.192-7.904
	l 53.816,0.016c 4.40,0.00, 8.52,3.56, 9.152,7.912l 9.856,67.648c 17.384,4.432, 33.776,11.328, 48.816,20.264l 55.096-40.616
	c 3.544-2.616, 8.984-2.20, 12.096,0.904l 38.04,38.072c 3.112,3.112, 3.504,8.536, 0.872,12.072l-40.864,54.784
	c 8.944,15.056, 15.848,31.464, 20.288,48.856l 67.60,10.224c 4.344,0.656, 7.904,4.80, 7.904,9.192L 511.984,251.488z M 256.016,118.16
	c-58.60,0.00-106.272,47.672-106.272,106.272s 47.672,106.28, 106.272,106.28c 58.592,0.00, 106.264-47.68, 106.264-106.28S 314.608,118.16, 256.016,118.16z"  />
<glyph unicode="&#x79;" d="M 439.064,161.128c-26.856-75.624-99.424-128.168-181.496-128.168c-42.088,0.00-82.08,13.344-115.64,38.576
	c-14.128,10.624-16.96,30.688-6.336,44.816c 10.616,14.128, 30.672,16.952, 44.808,6.344c 22.384-16.832, 49.072-25.736, 77.168-25.736
	c 60.784,0.00, 113.744,43.16, 125.92,102.592c 3.064,14.888, 16.168,25.576, 31.36,25.576l 96.888,0.00 L 511.736,456.00 c0.00,13.20-10.80,24.00-24.00,24.00L 24.00,480.00 C 10.80,480.00,0.00,469.20,0.00,456.00l0.00-166.976 
	l 73.736,0.00 C 100.60,364.656, 173.152,417.20, 255.232,417.20c 42.088,0.00, 82.08-13.344, 115.648-38.592c 14.128-10.624, 16.952-30.688, 6.328-44.808
	c-10.616-14.12-30.688-16.96-44.808-6.336c-22.384,16.832-49.064,25.736-77.168,25.736c-60.792,0.00-113.744-43.144-125.912-102.592
	c-3.048-14.888-16.152-25.584-31.352-25.584L0.00,225.024 L0.00-7.68 c0.00-13.192, 10.80-24.00, 24.00-24.00l 463.736,0.00 c 13.20,0.00, 24.00,10.808, 24.00,24.00L 511.736,161.128 L 439.064,161.128 z M 255.232,288.672
	c 35.336,0.00, 64.00-28.656, 64.00-64.00c0.00-35.336-28.656-64.00-64.00-64.00c-35.352,0.00-64.008,28.656-64.008,64.00S 219.88,288.672, 255.232,288.672z"  />
<glyph unicode="&#x42;" d="M 109.824,383.848l-1.096,6.056C 105.216,409.216, 88.672,428.88, 70.24,435.656l-48.208,17.68C 13.744,456.352, 4.544,452.12, 1.496,443.824
		c-3.04-8.296, 1.216-17.488, 9.512-20.528l 48.20-17.672c 7.784-2.856, 16.544-13.272, 18.024-21.424l 51.288-282.64
		c 3.872-21.328, 23.872-38.016, 45.536-38.016l 290.208,0.00 c 8.832,0.00, 16.00,7.168, 16.00,16.00c0.00,8.832-7.168,16.00-16.00,16.00L 174.064,95.544 c-6.128,0.00-12.96,5.704-14.056,11.736
		l-6.696,36.888l 288.008,31.232c 20.832,2.256, 39.88,20.224, 43.384,40.92l 26.952,167.52L 109.824,383.84 z M 192.336,180.576l-44.744-4.84L 133.04,255.904
		l 59.296,0.00 L 192.336,180.576 z M 192.336,287.904l-65.096,0.00 l-11.608,63.944l 76.704,0.00 L 192.336,287.904 z M 288.296,190.992l-63.968-6.936l0.00,71.848 l 63.968,0.00 L 288.296,190.992 z
		 M 288.304,287.904l-63.968,0.00 l0.00,63.944 l 63.968,0.00 L 288.304,287.904 z M 384.256,201.408l-63.96-6.936l0.00,61.432 l 63.96,0.00 L 384.256,201.408 z M 384.256,287.904l-63.96,0.00 l0.00,63.944 
		l 63.96,0.00 L 384.256,287.904 z M 453.144,221.632c-1.12-6.68-8.536-13.688-15.264-14.416l-21.616-2.344l0.00,51.024 l 42.648,0.00 L 453.144,221.632z M 468.816,314.416
		l-0.072,0.008l-4.456-26.52l-48.032,0.00 l0.00,63.944 l 58.192,0.00 L 468.816,314.416zM 128.448-0.112A32.00,32.00 180.00 1,0 192.448-0.11200000000002319A32.00,32.00 180.00 1,0 128.448-0.11200000000002319zM 416.40,0.096A32.00,32.00 180.00 1,0 480.40,0.09600000000000364A32.00,32.00 180.00 1,0 416.40,0.09600000000000364z"  />
<glyph unicode="&#x39;" d="M 480.36,352.608 C 489.168,352.608 496.36,345.416 496.36,336.608 L 496.36,112.608 C 496.36,103.80 489.168,96.608 480.36,96.608 L 432.304,96.608 C 423.504,96.608 416.304,103.80 416.304,112.608 L 416.304,336.608 C 416.304,345.416 423.504,352.608 432.304,352.608 L 480.36,352.608 ZM 388.28,233.744 C 395.504,228.712 395.496,220.48 388.28,215.456 L 221.136,98.984 C 213.912,93.952 208.00,97.024 208.00,105.832 L 208.00,343.40 C 208.00,352.192 213.904,355.28 221.128,350.248 L 388.28,233.744 ZM 180.28,233.744 C 187.504,228.712 187.496,220.48 180.28,215.456 L 13.136,98.984 C 5.912,93.952 0.00,97.024 0.00,105.832 L 0.00,343.40 C 0.00,352.192 5.904,355.28 13.128,350.248 L 180.28,233.744 Z"  />
<glyph unicode="&#x31;" d="M 79.688,352.208 C 88.48,352.208 95.688,345.016 95.688,336.208 L 95.688,112.208 C 95.688,103.40 88.488,96.208 79.688,96.208 L 31.632,96.208 C 22.824,96.208 15.632,103.40 15.632,112.208 L 15.632,336.208 C 15.632,345.016 22.824,352.208 31.632,352.208 L 79.688,352.208 ZM 290.856,349.848 C 298.096,354.88 303.992,351.80 304.00,343.00 L 304.00,105.424 C 304.00,96.624 298.08,93.544 290.864,98.576 L 123.72,215.048 C 116.504,220.08 116.496,228.312 123.712,233.344 L 290.856,349.848 ZM 498.856,349.848 C 506.096,354.88 511.992,351.80 512.00,343.00 L 512.00,105.424 C 512.00,96.624 506.08,93.544 498.864,98.576 L 331.72,215.048 C 324.504,220.08 324.504,228.312 331.712,233.344 L 498.856,349.848 Z"  />
<glyph unicode="&#x57;" d="M 391.608,480.00L 119.992,480.00 c-13.20,0.00-24.00-10.80-24.00-24.00l0.00-464.00 c0.00-13.20, 10.80-24.00, 24.00-24.00l 271.616,0.00 c 13.20,0.00, 24.00,10.80, 24.00,24.00L 415.608,456.00 C 415.608,469.20, 404.816,480.00, 391.608,480.00z
	 M 287.808,0.00l-64.00,0.00 l0.00,64.00 l 64.00,0.00 L 287.808,0.00 z M 383.608,96.00L 127.992,96.00 L 127.992,416.00 l 255.616,0.00 L 383.608,96.00 z"  />
<glyph unicode="&#x4b;" d="M 64.00,127.856 C 46.624,127.856 32.40,142.08 32.40,159.44 L 32.408,288.32 C 32.408,305.68 46.64,319.904 64.00,319.904 L 128.232,319.904 L 128.232,127.856 C 68.528,127.856 64.00,127.856 64.00,127.856 ZM 506.04,434.176 C 513.856,426.376 513.872,413.712 506.08,405.888 L 75.496-25.792 C 71.592-29.704 66.464-31.664 61.336-31.664 C 56.224-31.664 51.112-29.72 47.208-25.832 C 39.392-18.032 39.376-5.368 47.176,2.456 L 160.232,115.808 L 160.232,339.552 L 304.408,480.00 L 352.968,480.00 C 370.36,480.00 384.56,465.784 384.56,448.384 L 384.552,340.704 L 477.752,434.144 C 485.552,441.96 498.216,441.976 506.04,434.176 ZM 304.408-32.00 L 213.536,56.376 L 384.544,227.784 L 384.52-0.56 L 384.52-0.456 C 384.52-17.792 370.336-32.00 352.92-32.00 L 304.408-32.00 Z"  />
<glyph unicode="&#x6b;" d="M 159.768,320.736l-64.232,0.00 c-17.36,0.00-31.584-14.224-31.584-31.584L 63.928,160.264c0.00-17.36, 14.224-31.576, 31.60-31.576c0.00,0.00, 4.528,0.00, 64.232,0.00
		L 159.76,320.736 zM 416.096,449.224 L 416.048,0.28 L 416.048,0.376 C 416.048-16.952 401.864-31.168 384.448-31.168 L 335.944-31.168 L 191.768,109.04 L 191.768,340.384 L 335.952,480.832 L 384.496,480.832 C 401.896,480.832 416.096,466.616 416.096,449.224 Z"  />
<glyph unicode="&#x4a;" d="M 86.352,415.952 C 91.576,419.904 113.064,436.168 118.304,440.12 C 127.112,446.776 139.12,445.936 143.912,439.568 C 150.584,430.768 181.952,389.08 199.392,366.024 C 215.584,344.64 201.512,320.288 195.648,298.00 C 190.552,278.672 183.512,253.744 207.656,221.832 L 240.856,177.736 C 264.888,145.744 290.784,145.64 310.76,145.20 C 333.80,144.688 361.08,151.512 377.184,130.04 C 394.528,106.928 425.952,65.28 432.568,56.44 C 437.376,50.072 434.88,38.288 426.048,31.656 C 420.80,27.712 399.24,11.536 394.00,7.60 C 385.176,0.968 372.728,4.248 362.832,9.192 C 354.832,13.152 254.024,67.552 210.784,125.152 L 148.816,207.392 C 105.376,264.848 80.896,376.752 79.272,385.552 C 77.256,396.424 77.536,409.288 86.352,415.952 Z"  />
<glyph unicode="&#x36;" d="M 400.00,96.00c0.00-8.808-7.192-16.00-16.00-16.00L 128.00,80.00 c-8.808,0.00-16.00,7.192-16.00,16.00L 112.00,352.00 c0.00,8.808, 7.192,16.00, 16.00,16.00l 256.00,0.00 c 8.808,0.00, 16.00-7.192, 16.00-16.00L 400.00,96.00 z"  />
<glyph unicode="&#x76;" d="M 256.112,479.928c-141.392,0.00-256.00-114.616-256.00-256.00s 114.608-256.00, 256.00-256.00c 141.376,0.00, 256.00,114.616, 256.00,256.00S 397.496,479.928, 256.112,479.928z
	 M 404.40,316.952L 198.248,84.296c-2.912-3.288-7.912-3.504-11.104-0.472L 76.272,189.64c-3.184,3.04-3.312,8.144-0.296,11.336l 26.688,28.208
	c 3.032,3.192, 8.104,3.328, 11.28,0.288l 76.104-72.68l 173.248,196.424c 2.904,3.296, 7.984,3.616, 11.28,0.712l 29.144-25.696
	C 407.008,325.328, 407.32,320.248, 404.40,316.952z"  />
<glyph unicode="&#x73;" d="M 476.84,333.024L 370.312,475.28c-5.264,7.04-12.20,6.104-15.424-2.096L 335.096,422.64c-25.016,9.792-51.216,14.76-77.904,14.76
		c-88.672,0.00-166.848-53.368-199.168-135.944c-12.888-32.912-17.288-67.704-13.40-101.856c 1.64-6.496, 8.416-10.44, 14.936-9.736l 53.272,9.80
		l-0.008,0.032l 0.104,0.032c 7.096,1.296, 11.008,8.832, 10.64,15.248c0.00,0.00, 0.112,0.032, 0.168,0.048c-1.28,19.288, 1.536,38.752, 8.80,57.28
		c 20.232,51.704, 69.168,85.112, 124.664,85.112c 16.664,0.00, 33.056-3.12, 48.736-9.256l-19.92-50.904c-3.20-8.192, 1.248-13.592, 9.904-12.008
		l 174.784,32.104C 479.36,318.92, 482.128,325.992, 476.84,333.024zM 455.016,257.872 C 461.336,258.376 468.216,254.32 469.528,248.376 C 473.368,214.896 469.384,180.056 456.272,146.552 C 423.944,63.984 345.768,10.624 257.104,10.624 C 257.104,10.624 257.112,10.624 257.104,10.624 C 230.448,10.624 204.256,15.584 179.256,25.368 L 159.40-25.36 C 156.184-33.56 149.24-34.496 143.968-27.464 L 37.44,114.768 C 32.168,121.816 34.936,128.88 43.592,130.472 L 218.376,162.576 C 227.032,164.168 231.48,158.76 228.28,150.576 L 208.424,99.84 C 224.088,93.72 240.472,90.608 257.112,90.608 C 312.608,90.608 361.544,124.016 381.776,175.704 C 389.064,194.36 391.72,213.656 390.544,232.44 L 390.736,232.488 C 390.48,238.896 394.416,246.712 401.512,248.024 L 401.624,248.048 L 401.624,248.064 L 455.016,257.872 Z"  />
<glyph unicode="&#x45;" d="M 488.00,416.32L 24.40,416.32 c-13.20,0.00-24.00-10.80-24.00-24.00l0.00-335.536 c0.00-13.20, 10.80-24.00, 24.00-24.00L 488.00,32.784 c 13.20,0.00, 24.00,10.80, 24.00,24.00L 512.00,392.32 C 512.00,405.52, 501.20,416.32, 488.00,416.32z
	 M 383.736,64.784L 32.40,64.784 L 32.40,384.32 l 351.336,0.00 L 383.736,64.784 z M 480.048,191.832l-64.00,0.00 l0.00,64.00 l 64.00,0.00 L 480.048,191.832 z"  />
<glyph unicode="&#x74;" d="M 340.872,224.96L 425.40,224.96L 425.40,140.416L 340.872,140.416zM 291.928,53.84 C 296.016,38.76 305.968,29.552 321.736,26.272 C 329.528,24.696 341.608,23.896 357.968,23.896 L 357.968,0.408 L 154.304,0.408 L 154.304,23.896 C 165.688,23.896 173.736,24.08 178.44,24.472 C 194.344,26.048 205.624,30.256 212.28,37.096 C 220.144,45.12 224.048,62.528 224.048,89.312 L 224.048,396.416 C 189.384,395.416 162.24,383.968 142.656,362.088 C 124.032,341.12 112.656,309.008 108.528,265.728 L 86.528,269.536 L 90.616,416.40 L 421.696,416.40 L 425.816,269.536 L 403.768,265.728 C 399.672,309.008 388.376,341.12 369.816,362.088 C 350.312,384.00 323.28,395.44 288.728,396.416 L 288.728,89.32 C 288.728,73.48 289.808,61.632 291.928,53.84 ZM 85.784,224.96L 170.296,224.96L 170.296,140.416L 85.784,140.416z"  />
<glyph unicode="&#xfc;" d="M 487.808,415.904 C 501.008,415.904 511.808,405.104 511.80,391.904 L 511.80,56.088 C 511.80,42.888 501.00,32.088 487.80,32.088 L 24.20,32.088 C 11.00,32.088 0.20,42.888 0.20,56.088 L 0.20,391.904 C 0.20,405.104 11.00,415.904 24.20,415.904 L 487.808,415.904 Z M 479.80,64.096 L 479.80,383.904 L 32.20,383.904 L 32.20,224.00 L 232.00,224.00 C 245.20,224.00 256.00,213.20 256.00,200.00 L 256.00,64.128 L 479.808,64.096 Z"  />
<glyph unicode="&#xdc;" d="M 487.224,416.288l-463.20,0.00 c-13.20,0.00-24.00-10.80-24.00-24.00L 0.024,55.68 c0.00-13.20, 10.80-24.00, 24.00-24.00l 463.20,0.00 c 13.20,0.00, 24.00,10.80, 24.00,24.00L 511.224,392.288 
	C 511.224,405.488, 500.432,416.288, 487.224,416.288z M 255.424,71.984c0.00-4.40-3.60-8.00-8.00-8.00l-208.00,0.00 c-4.40,0.00-8.00,3.60-8.00,8.00l0.00,144.00 c0.00,4.40, 3.60,8.00, 8.00,8.00l 208.00,0.00 
	c 4.40,0.00, 8.00-3.60, 8.00-8.00L 255.424,71.984 z"  />
<glyph unicode="&#x30;" d="M 208.136,416.00 C 216.928,416.00 224.136,408.80 224.136,400.00 L 224.136,272.00 C 224.136,263.20 216.936,256.00 208.136,256.00 L 80.136,256.00 C 71.336,256.00 64.136,263.20 64.136,272.00 L 64.136,400.00 C 64.136,408.80 71.336,416.00 80.136,416.00 L 208.136,416.00 ZM 432.056,416.00 C 440.84,416.00 448.056,408.80 448.056,400.00 L 448.056,272.00 C 448.056,263.20 440.864,256.00 432.056,256.00 L 304.056,256.00 C 295.256,256.00 288.056,263.20 288.056,272.00 L 288.056,400.00 C 288.056,408.80 295.256,416.00 304.056,416.00 L 432.056,416.00 ZM 208.136,192.00 C 216.928,192.00 224.136,184.80 224.136,176.00 L 224.136,48.00 C 224.136,39.20 216.936,32.00 208.136,32.00 L 80.136,32.00 C 71.336,32.00 64.136,39.20 64.136,48.00 L 64.136,176.00 C 64.136,184.80 71.336,192.00 80.136,192.00 L 208.136,192.00 ZM 432.056,192.00 C 440.84,192.00 448.056,184.80 448.056,176.00 L 448.056,48.00 C 448.056,39.20 440.864,32.00 432.056,32.00 L 304.056,32.00 C 295.256,32.00 288.056,39.20 288.056,48.00 L 288.056,176.00 C 288.056,184.80 295.256,192.00 304.056,192.00 L 432.056,192.00 Z"  />
<glyph unicode="&#x75;" d="M 432.048,64.68 C 440.872,64.68 448.048,57.512 448.048,48.68 L 448.048,8.576 C 448.048-13.488 430.112-31.424 408.048-31.424 L 103.952-31.424 C 81.896-31.424 63.952-13.488 63.952,8.576 L 63.952,48.76 C 63.952,57.592 71.12,64.76 79.952,64.76 C 88.784,64.76 95.952,57.592 95.952,48.76 L 95.952,8.576 C 95.952,4.232 99.616,0.576 103.952,0.576 L 408.048,0.576 C 412.384,0.576 416.048,4.232 416.048,8.576 L 416.048,48.68 C 416.048,57.512 423.216,64.68 432.048,64.68 ZM 106.16,224.592 C 97.352,224.592 94.072,230.632 98.864,238.016 L 247.04,466.456 C 251.84,473.84 259.664,473.84 264.472,466.456 L 412.632,238.016 C 417.44,230.632 414.16,224.592 405.344,224.592 L 320.128,224.592 L 320.128,56.264 C 320.128,43.072 309.32,32.264 296.128,32.264 L 216.128,32.264 C 202.936,32.264 192.128,43.072 192.128,56.264 L 192.128,224.592 L 106.16,224.592 Z"  />
<glyph unicode="&#x21;" d="M 482.456,480.392L 29.528,480.392 c-16.248,0.00-29.536-13.296-29.536-29.536l0.00-452.904 c0.00-16.248, 13.296-29.536, 29.536-29.536l 452.92,0.00 
		c 16.248,0.00, 29.536,13.288, 29.536,29.536L 511.984,450.848 C 511.992,467.096, 498.704,480.392, 482.456,480.392z M 479.992,0.408l-448.00,0.00 L 31.992,448.392 l 448.00,0.00 L 479.992,0.408 zM 225.88,160.264 L 213.832,327.432 L 213.832,416.40 L 298.208,416.40 L 298.208,327.432 L 286.08,160.264 ZM 213.832,116.688L 298.128,116.688L 298.128,32.40L 213.832,32.40z"  />
<glyph unicode="&#xe4;" d="M 218.952,128.80 L 200.448,369.512 L 200.448,480.80 L 311.528,480.80 L 311.528,369.512 L 293.032,128.80 ZM 199.992,80.00L 311.976,80.00L 311.976-32.00L 199.992-32.00z"  />
<glyph unicode="&#x7a;" d="M 413.744,304.368 C 418.776,304.368 422.88,300.264 422.888,295.232 L 422.888,272.376 C 422.888,267.352 418.776,263.24 413.744,263.24 L 338.936,263.24 L 338.936,188.44 C 338.936,183.424 334.816,179.312 329.80,179.312 L 306.944,179.312 C 301.928,179.312 297.808,183.424 297.808,188.44 L 297.808,263.24 L 223.00,263.24 C 217.968,263.24 213.856,267.352 213.856,272.376 L 213.856,295.232 C 213.856,300.256 217.968,304.368 223.00,304.368 L 297.808,304.368 L 297.808,379.192 C 297.808,384.216 301.928,388.328 306.944,388.328 L 329.80,388.328 C 334.816,388.328 338.936,384.216 338.936,379.192 L 338.936,304.368 L 413.744,304.368 ZM 318.392,478.52c-106.864,0.00-193.456-86.592-193.456-193.448c0.00-106.816, 86.584-193.424, 193.456-193.44
		c 106.824,0.016, 193.416,86.624, 193.416,193.44C 511.808,391.928, 425.208,478.52, 318.392,478.52z M 318.40,127.632
		c-86.832,0.016-157.464,70.64-157.464,157.44c0.00,86.816, 70.632,157.448, 157.456,157.448c 86.80,0.00, 157.416-70.632, 157.416-157.448
		C 475.808,198.272, 405.184,127.648, 318.40,127.632zM 130.80,159.504 C 147.104,135.272 167.992,114.376 192.192,98.048 C 165.368,71.84 85.496-6.24 76.52-15.256 C 31.368-60.432 -29.40,3.52 15.656,47.288 C 25.60,56.944 104.64,134.008 130.80,159.504 Z"  />
<glyph unicode="&#x5a;" d="M 288.608,304.16 C 293.632,304.16 297.744,300.048 297.744,295.024 L 297.744,272.168 C 297.744,267.144 293.632,263.032 288.608,263.032 L 97.856,263.032 C 92.832,263.032 88.72,267.144 88.72,272.168 L 88.72,295.024 C 88.72,300.048 92.832,304.16 97.856,304.16 L 288.608,304.16 ZM 386.672,284.464c0.00,106.848-86.592,193.44-193.456,193.44c-106.824,0.00-193.424-86.584-193.424-193.44
		c0.00-106.824, 86.60-193.432, 193.424-193.448C 300.08,91.032, 386.672,177.64, 386.672,284.464z M 193.224,127.016
		c-86.808,0.016-157.424,70.64-157.424,157.448c0.00,86.816, 70.616,157.44, 157.424,157.44c 86.824,0.00, 157.456-70.624, 157.456-157.44
		C 350.672,197.656, 280.04,127.032, 193.224,127.016zM 495.944,46.672 C 541.008,2.912 480.24-61.04 435.08-15.872 C 426.096-6.856 346.232,71.224 319.408,97.432 C 343.616,113.76 364.496,134.664 380.80,158.88 C 406.968,133.392 486.008,56.328 495.944,46.672 Z"  />
<glyph unicode="&#x2c;" d="M0.00,224.00A256.00,256.00 180.00 1,0 512.00,224A256.00,256.00 180.00 1,0 0.00,224z"  />
<glyph unicode="&#x3b;" d="M 123.192,224.00A132.808,132.808 180.00 1,0 388.808,224A132.808,132.808 180.00 1,0 123.192,224z"  />
<glyph unicode="&#xf6;" d="M 256.40,454.44 C 125.672,454.232 18.72,351.264 12.84,222.072 C 12.832,222.584 12.80,223.088 12.80,223.60 C 12.80,358.136 121.864,467.20 256.40,467.20 C 390.936,467.20 500.00,358.136 500.00,223.592 C 500.00,223.104 499.968,222.632 499.96,222.144 C 494.04,351.304 387.104,454.232 256.40,454.44 Z"  />
<glyph class="hidden" unicode="&#xf000;" d="M0,480L 512 -32L0 -32 z" horiz-adv-x="0" />
</font>
</defs>
</svg>
